:FULLY-SPECIFIED
:FORCE-ALL-JOINTS-BE-3DOF
:DEGREES
374
root 6.19653 16.4901 -15.8899 9.19258 -16.9972 -5.95917
lfemur -44.9605 22.708 -12.788
ltibia 70.3859 -0 0
lfoot -11.0649 -1.98584 0.0124173
ltoes 13.2997 -0 0
rfemur -25.8281 -4.75717 31.0607
rtibia 43.579 -0 0
rfoot -20.3525 0.426158 -0.053666
rtoes 18.4824 -0 0
lowerback 5.30372 1.51539 3.24551
upperback 2.63024 2.16081 1.00299
thorax -0.185048 1.09691 -0.903022
lowerneck -7.93156 -1.24413 2.92049
upperneck -0.599104 -1.97553 2.15274
head 1.13554 -0.949273 0.113859
lclavicle 1.01778e-013 1.19271e-014 0
lhumerus -40.4948 -23.063 95.1941
lradius 56.5796 -0 0
lwrist 19.4915 0 0
lhand -21.1724 2.96701 0.00154175
lfingers 7.12502 -0 0
lthumb 5.20785 32.8816 0.00130898
rclavicle 1.01778e-013 1.19271e-014 0
rhumerus -37.5776 12.4631 -93.3554
rradius 61.5711 -0 0
rwrist 9.2452 0 0
rhand -9.08428 -19.4225 -0.00342121
rfingers 7.12502 -0 0
rthumb 16.8649 -48.703 -0.00195166
375
root 6.14874 16.4847 -15.7482 9.02557 -17.643 -5.89587
lfemur -44.4252 22.1187 -12.5738
ltibia 69.446 -0 0
lfoot -10.982 -1.4168 0.0240123
ltoes 12.8641 -0 0
rfemur -26.1238 -5.36976 30.8685
rtibia 44.8713 -0 0
rfoot -19.4783 0.195232 -0.103815
rtoes 19.2237 -0 0
lowerback 5.28892 1.61709 3.1334
upperback 2.59756 2.29011 0.909173
thorax -0.207503 1.16068 -0.94394
lowerneck -7.88198 -1.14761 3.05048
upperneck -0.448919 -1.86211 2.12151
head 1.17745 -0.888876 0.0863042
lclavicle 1.01778e-013 1.19271e-014 0
lhumerus -40.6558 -22.9051 95.1618
lradius 56.4204 -0 0
lwrist 19.5026 0 0
lhand -21.0264 3.00733 0.00298077
lfingers 7.12502 -0 0
lthumb 5.34877 32.917 0.00253073
rclavicle 1.01778e-013 1.19271e-014 0
rhumerus -37.8309 12.4023 -93.328
rradius 61.5861 -0 0
rwrist 9.2026 0 0
rhand -9.38169 -19.3786 -0.00661476
rfingers 7.12502 -0 0
rthumb 16.5782 -48.6771 -0.00377343
376
root 6.10094 16.4794 -15.6064 8.85721 -18.2887 -5.83036
lfemur -43.8945 21.5276 -12.3664
ltibia 68.5062 -0 0
lfoot -10.8991 -0.847747 0.0347841
ltoes 12.4284 -0 0
rfemur -26.4178 -5.98333 30.6793
rtibia 46.1636 -0 0
rfoot -18.6039 -0.0364324 -0.150435
rtoes 19.9651 -0 0
lowerback 5.27392 1.71876 3.02125
upperback 2.56467 2.41936 0.815276
thorax -0.230003 1.22443 -0.984884
lowerneck -7.83218 -1.0512 3.18055
upperneck -0.298806 -1.74861 2.09057
head 1.21933 -0.828458 0.0587937
lclavicle 1.01778e-013 1.19271e-014 0
lhumerus -40.8167 -22.7472 95.1291
lradius 56.2611 -0 0
lwrist 19.5136 0 0
lhand -20.8804 3.04766 0.00431705
lfingers 7.12502 -0 0
lthumb 5.48968 32.9525 0.00366525
rclavicle 1.01778e-013 1.19271e-014 0
rhumerus -38.0842 12.3417 -93.3004
rradius 61.601 -0 0
rwrist 9.16 0 0
rhand -9.6791 -19.3347 -0.00958057
rfingers 7.12502 -0 0
rthumb 16.2915 -48.6511 -0.00546527
377
root 6.05314 16.4741 -15.4647 8.68742 -18.9341 -5.76259
lfemur -43.3682 20.9347 -12.1657
ltibia 67.5664 -0 0
lfoot -10.816 -0.278677 0.0447315
ltoes 11.9928 -0 0
rfemur -26.71 -6.59785 30.493
rtibia 47.4559 -0 0
rfoot -17.7293 -0.268782 -0.193513
rtoes 20.7064 -0 0
lowerback 5.25872 1.8204 2.90907
upperback 2.53156 2.54855 0.721296
thorax -0.25255 1.28817 -1.02585
lowerneck -7.78216 -0.954905 3.31071
upperneck -0.148763 -1.63503 2.05994
head 1.26118 -0.768021 0.0313278
lclavicle 1.01778e-013 1.19271e-014 0
lhumerus -40.9776 -22.5894 95.0959
lradius 56.1019 -0 0
lwrist 19.5247 0 0
lhand -20.7345 3.08799 0.00555057
lfingers 7.12502 -0 0
lthumb 5.6306 32.988 0.00471252
rclavicle 1.01778e-013 1.19271e-014 0
rhumerus -38.3374 12.2812 -93.2724
rradius 61.616 -0 0
rwrist 9.1174 0 0
rhand -9.97651 -19.2908 -0.0123186
rfingers 7.12502 -0 0
rthumb 16.0048 -48.6251 -0.00702713
378
root 6.00534 16.4687 -15.3229 8.51615 -19.5794 -5.69253
lfemur -42.8461 20.3402 -11.9715
ltibia 66.6265 -0 0
lfoot -10.7329 0.290406 0.0538534
ltoes 11.5571 -0 0
rfemur -27.0006 -7.21331 30.3097
rtibia 48.7482 -0 0
rfoot -16.8546 -0.501763 -0.23304
rtoes 21.4478 -0 0
lowerback 5.24331 1.92201 2.79685
upperback 2.49823 2.67769 0.627231
thorax -0.275144 1.35189 -1.06685
lowerneck -7.73193 -0.858722 3.44094
upperneck 0.00121164 -1.52137 2.0296
head 1.30301 -0.707564 0.00390649
lclavicle 1.01778e-013 1.19271e-014 0
lhumerus -41.1383 -22.4317 95.0623
lradius 55.9426 -0 0
lwrist 19.5357 0 0
lhand -20.5885 3.12832 0.00668133
lfingers 7.12502 -0 0
lthumb 5.77152 33.0235 0.00567255
rclavicle 1.01778e-013 1.19271e-014 0
rhumerus -38.5907 12.2207 -93.2443
rradius 61.631 -0 0
rwrist 9.0748 0 0
rhand -10.2739 -19.2469 -0.0148286
rfingers 7.12502 -0 0
rthumb 15.7181 -48.5991 -0.00845897
379
root 5.95755 16.4634 -15.1812 8.34334 -20.2244 -5.62012
lfemur -42.3282 19.744 -11.7839
ltibia 65.6867 -0 0
lfoot -10.6496 0.859502 0.062149
ltoes 11.1214 -0 0
rfemur -27.2897 -7.82968 30.1292
rtibia 50.0405 -0 0
rfoot -15.9797 -0.735321 -0.269004
rtoes 22.1891 -0 0
lowerback 5.22771 2.02359 2.6846
upperback 2.46469 2.80677 0.533081
thorax -0.297783 1.4156 -1.10787
lowerneck -7.68147 -0.762654 3.57125
upperneck 0.151118 -1.40763 1.99956
head 1.3448 -0.647086 -0.0234704
lclavicle 1.01778e-013 1.19271e-014 0
lhumerus -41.299 -22.2741 95.0282
lradius 55.7834 -0 0
lwrist 19.5468 0 0
lhand -20.4425 3.16866 0.00770931
lfingers 7.12502 -0 0
lthumb 5.91243 33.0589 0.00654532
rclavicle 1.01778e-013 1.19271e-014 0
rhumerus -38.8439 12.1604 -93.2158
rradius 61.646 -0 0
rwrist 9.0322 0 0
rhand -10.5713 -19.203 -0.0171107
rfingers 7.12502 -0 0
rthumb 15.4314 -48.5732 -0.00976076
380
root 5.90975 16.4581 -15.0394 8.16893 -20.8693 -5.54533
lfemur -41.8142 19.1463 -11.6027
ltibia 64.7469 -0 0
lfoot -10.5663 1.42861 0.0696174
ltoes 10.6858 -0 0
rfemur -27.5772 -8.44694 29.9517
rtibia 51.3328 -0 0
rfoot -15.1046 -0.969401 -0.301398
rtoes 22.9305 -0 0
lowerback 5.21191 2.12514 2.57232
upperback 2.43094 2.9358 0.438845
thorax -0.320469 1.47929 -1.14892
lowerneck -7.6308 -0.666701 3.70164
upperneck 0.300958 -1.29381 1.96982
head 1.38656 -0.586589 -0.0508028
lclavicle 1.01778e-013 1.19271e-014 0
lhumerus -41.4596 -22.1165 94.9937
lradius 55.6241 -0 0
lwrist 19.5578 0 0
lhand -20.2965 3.20899 0.00863452
lfingers 7.12502 -0 0
lthumb 6.05335 33.0944 0.00733083
rclavicle 1.01778e-013 1.19271e-014 0
rhumerus -39.097 12.1003 -93.1871
rradius 61.6609 -0 0
rwrist 8.9896 0 0
rhand -10.8688 -19.159 -0.0191648
rfingers 7.12502 -0 0
rthumb 15.1447 -48.5472 -0.0109325
381
root 5.86195 16.4527 -14.8977 7.99285 -21.5139 -5.4681
lfemur -41.3041 18.547 -11.4278
ltibia 63.807 -0 0
lfoot -10.4829 1.99773 0.0762579
ltoes 10.2501 -0 0
rfemur -27.8633 -9.06507 29.7769
rtibia 52.6251 -0 0
rfoot -14.2294 -1.20395 -0.330213
rtoes 23.6718 -0 0
lowerback 5.19591 2.22665 2.46
upperback 2.39697 3.06477 0.344522
thorax -0.343201 1.54296 -1.19
lowerneck -7.57992 -0.570863 3.83212
upperneck 0.450732 -1.17991 1.94038
head 1.4283 -0.526072 -0.0780908
lclavicle 1.01778e-013 1.19271e-014 0
lhumerus -41.6201 -21.9591 94.9587
lradius 55.4649 -0 0
lwrist 19.5689 0 0
lhand -20.1505 3.24933 0.00945694
lfingers 7.12502 -0 0
lthumb 6.19427 33.1299 0.00802907
rclavicle 1.01778e-013 1.19271e-014 0
rhumerus -39.3502 12.0402 -93.1581
rradius 61.6759 -0 0
rwrist 8.94699 0 0
rhand -11.1662 -19.1151 -0.0209908
rfingers 7.12502 -0 0
rthumb 14.858 -48.5211 -0.0119741
382
root 5.81415 16.4474 -14.7559 7.81503 -22.1583 -5.38838
lfemur -40.7976 17.9463 -11.2591
ltibia 62.8672 -0 0
lfoot -10.3995 2.56685 0.0820698
ltoes 9.81446 -0 0
rfemur -28.1479 -9.68406 29.605
rtibia 53.9174 -0 0
rfoot -13.3541 -1.43891 -0.355443
rtoes 24.4132 -0 0
lowerback 5.17971 2.32814 2.34764
upperback 2.36278 3.19369 0.25011
thorax -0.365979 1.60662 -1.2311
lowerneck -7.52881 -0.475141 3.96268
upperneck 0.600442 -1.06594 1.91124
head 1.47 -0.465534 -0.105335
lclavicle 1.01778e-013 1.19271e-014 0
lhumerus -41.7805 -21.8017 94.9234
lradius 55.3056 -0 0
lwrist 19.5799 0 0
lhand -20.0045 3.28968 0.0101766
lfingers 7.12502 -0 0
lthumb 6.33519 33.1654 0.00864004
rclavicle 1.01778e-013 1.19271e-014 0
rhumerus -39.6033 11.9803 -93.1289
rradius 61.6909 -0 0
rwrist 8.90439 0 0
rhand -11.4636 -19.0711 -0.0225887
rfingers 7.12502 -0 0
rthumb 14.5713 -48.4951 -0.0128855
383
root 5.76636 16.442 -14.6142 7.63542 -22.8025 -5.30613
lfemur -40.2947 17.3443 -11.0965
ltibia 61.9273 -0 0
lfoot -10.316 3.13599 0.0870525
ltoes 9.37879 -0 0
rfemur -28.4312 -10.3039 29.4359
rtibia 55.2097 -0 0
rfoot -12.4788 -1.67423 -0.377079
rtoes 25.1545 -0 0
lowerback 5.16331 2.4296 2.23525
upperback 2.32837 3.32255 0.155609
thorax -0.388803 1.67026 -1.27223
lowerneck -7.47749 -0.379536 4.09332
upperneck 0.750089 -0.951892 1.8824
head 1.51168 -0.404978 -0.132534
lclavicle 1.01778e-013 1.19271e-014 0
lhumerus -41.9409 -21.6444 94.8875
lradius 55.1464 -0 0
lwrist 19.591 0 0
lhand -19.8585 3.33002 0.0107934
lfingers 7.12502 -0 0
lthumb 6.47611 33.2009 0.00916374
rclavicle 1.01778e-013 1.19271e-014 0
rhumerus -39.8563 11.9205 -93.0994
rradius 61.7059 -0 0
rwrist 8.86179 0 0
rhand -11.761 -19.0272 -0.0239583
rfingers 7.12502 -0 0
rthumb 14.2846 -48.4691 -0.0136668
